<?xml version="1.0" standalone="no"?>
<!DOCTYPE svg PUBLIC "-//W3C//DTD SVG 20010904//EN"
 "http://www.w3.org/TR/2001/REC-SVG-20010904/DTD/svg10.dtd">
<svg version="1.0" xmlns="http://www.w3.org/2000/svg"
 width="98.000000pt" height="150.000000pt" viewBox="0 0 98.000000 150.000000"
 preserveAspectRatio="xMidYMid meet">
<metadata>
Created by potrace 1.16, written by Peter Selinger 2001-2019
</metadata>
<g transform="translate(0.000000,150.000000) scale(0.100000,-0.100000)"
fill="#000000" stroke="none">
<path d="M115 1473 c-11 -2 -27 -7 -35 -10 -8 -4 -17 -7 -20 -7 -25 -6 -39
-28 -45 -71 -9 -68 -17 -1177 -9 -1293 l6 -92 484 0 484 0 0 683 c0 375 -3
706 -6 735 l-7 52 -133 -1 c-97 -1 -134 -4 -134 -13 0 -8 18 -13 48 -13 26 -1
64 -2 85 -2 25 -1 37 -6 37 -15 0 -24 20 -29 35 -10 13 17 16 17 25 4 5 -8 10
-28 10 -43 0 -26 -2 -27 -22 -16 l-23 12 20 -23 c18 -20 20 -38 23 -199 5
-317 3 -605 -4 -655 -5 -38 -3 -47 6 -41 10 6 11 2 7 -16 -3 -13 -7 -104 -8
-201 -1 -174 -3 -184 -33 -179 -4 1 -13 -2 -20 -8 -11 -9 -286 -20 -628 -24
l-198 -2 0 70 c0 38 -5 320 -10 625 -10 578 -8 662 16 653 20 -7 17 7 -3 23
-16 12 -16 15 -3 24 22 14 30 12 23 -6 -5 -13 -2 -15 18 -8 13 4 64 7 113 6
56 -2 92 1 96 8 4 6 22 11 41 12 19 0 59 5 89 12 58 12 124 10 115 -3 -2 -5
-27 -6 -55 -3 -45 4 -50 3 -44 -13 6 -14 15 -16 52 -11 25 3 62 6 84 6 24 0
37 4 33 10 -4 6 5 10 20 10 34 0 28 21 -8 31 -29 8 -487 9 -522 2z"/>
<path d="M92 978 c9 -7 30 -59 47 -115 17 -57 35 -103 40 -103 5 0 19 26 31
58 42 105 39 104 74 19 18 -42 35 -79 38 -82 3 -4 20 38 38 92 18 54 39 108
46 121 14 21 13 22 -15 22 -24 0 -29 -4 -24 -16 6 -17 -26 -134 -37 -134 -4 0
-19 31 -34 70 -15 38 -31 72 -35 75 -4 2 -20 -32 -36 -76 -15 -44 -31 -77 -35
-72 -13 14 -42 125 -36 139 4 11 -5 14 -36 14 -35 0 -39 -2 -26 -12z"/>
<path d="M470 885 c-23 -58 -50 -110 -59 -115 -12 -7 -9 -9 17 -10 18 0 31 3
28 8 -2 4 2 22 9 40 12 27 19 32 48 32 31 0 35 -4 47 -40 12 -36 16 -40 48
-40 34 0 34 0 14 18 -11 9 -37 61 -58 115 -20 53 -41 97 -45 97 -4 0 -26 -47
-49 -105z"/>
<path d="M668 981 c14 -8 20 -190 7 -211 -4 -6 10 -10 37 -10 34 1 39 3 26 11
-26 15 -25 79 1 79 10 0 26 -12 36 -26 31 -47 54 -64 88 -63 26 0 28 2 12 8
-28 12 -88 89 -80 104 3 7 12 23 20 36 10 19 11 30 3 45 -17 32 -28 36 -98 36
-38 0 -60 -4 -52 -9z"/>
<path d="M231 542 c-18 -48 -41 -100 -50 -117 l-17 -30 26 0 c19 0 26 4 23 15
-2 9 0 27 6 41 8 24 13 26 48 20 36 -6 41 -11 58 -67 0 -1 15 -5 34 -9 l33 -7
-20 28 c-12 16 -37 71 -58 122 -20 50 -39 92 -43 92 -3 0 -21 -39 -40 -88z"/>
<path d="M423 619 c14 -8 17 -25 17 -107 0 -54 -4 -102 -9 -107 -6 -6 5 -10
30 -10 26 -1 36 2 29 9 -6 6 -10 27 -10 48 0 50 20 50 57 -2 15 -22 36 -42 45
-45 34 -12 58 -14 58 -4 0 5 -6 9 -14 9 -7 0 -30 20 -50 45 l-37 45 22 29 c27
36 20 73 -16 89 -33 15 -148 16 -122 1z"/>
</g>
</svg>
